ISO-10303-21;
HEADER;
/****************************************************************
 * Generated by software with PDE/Lib inside                    *
 * PDElib Version v51a, created Thu 12/14/2006                  *
 * International Technegroup Inc. (www.iti-oh.com)              *
 ****************************************************************/
FILE_DESCRIPTION((''),'2;1');
FILE_NAME('Y:\\3DDATA\\2_OpticalHard\\02_\X2\6D77591688FD54C1\X0\\\3_Bases\\BSP\\BSP-85EE\\BSP-85EE.stp','2014-01-14T16:21:25',('usernoto011'),(''),'Autodesk Inventor 2008','Autodesk Inventor 2008','');
FILE_SCHEMA(('AUTOMOTIVE_DESIGN { 1 0 10303 214 1 1 1 1 }'));
ENDSEC;
DATA;
#5=APPLICATION_CONTEXT('automotive design');
#6=APPLICATION_PROTOCOL_DEFINITION('International Standard','automotive_design',2001,#5);
#7=PRODUCT_CONTEXT('',#5,'mechanical');
#8=PRODUCT('BSP-85EE-01-S01','BSP-85EE-01-S01',$,(#7));
#9=PRODUCT_RELATED_PRODUCT_CATEGORY('part',$,(#8));
#10=PRODUCT_DEFINITION_FORMATION('',$,#8);
#11=PRODUCT_DEFINITION_CONTEXT('part definition',#5,'design');
#12=PRODUCT_DEFINITION('',$,#10,#11);
#18=(NAMED_UNIT(*)PLANE_ANGLE_UNIT()SI_UNIT($,.RADIAN.));
#19=DIMENSIONAL_EXPONENTS(0.0,0.0,0.0,0.0,0.0,0.0,0.0);
#20=PLANE_ANGLE_MEASURE_WITH_UNIT(PLANE_ANGLE_MEASURE(0.017453292500000),#18);
#24=(CONVERSION_BASED_UNIT('DEGREE',#20)NAMED_UNIT(#19)PLANE_ANGLE_UNIT());
#28=(NAMED_UNIT(*)SI_UNIT($,.STERADIAN.)SOLID_ANGLE_UNIT());
#32=(LENGTH_UNIT()NAMED_UNIT(*)SI_UNIT(.MILLI.,.METRE.));
#34=UNCERTAINTY_MEASURE_WITH_UNIT(LENGTH_MEASURE(0.010000000000000),#32,'DISTANCE_ACCURACY_VALUE','');
#36=(GEOMETRIC_REPRESENTATION_CONTEXT(3)GLOBAL_UNCERTAINTY_ASSIGNED_CONTEXT((#34))GLOBAL_UNIT_ASSIGNED_CONTEXT((#24,#28,#32))REPRESENTATION_CONTEXT('None','None'));
#37=AXIS2_PLACEMENT_3D('',#38,#39,#40);
#38=CARTESIAN_POINT('',(0.0,0.0,0.0));
#39=DIRECTION('',(0.0,0.0,1.0));
#40=DIRECTION('',(1.0,0.0,0.0));
#41=SHAPE_REPRESENTATION('',(#37),#36);
#42=PRODUCT_DEFINITION_SHAPE('','',#12);
#43=SHAPE_DEFINITION_REPRESENTATION(#42,#41);
#49=(NAMED_UNIT(*)PLANE_ANGLE_UNIT()SI_UNIT($,.RADIAN.));
#50=DIMENSIONAL_EXPONENTS(0.0,0.0,0.0,0.0,0.0,0.0,0.0);
#51=PLANE_ANGLE_MEASURE_WITH_UNIT(PLANE_ANGLE_MEASURE(0.017453292500000),#49);
#55=(CONVERSION_BASED_UNIT('DEGREE',#51)NAMED_UNIT(#50)PLANE_ANGLE_UNIT());
#59=(NAMED_UNIT(*)SI_UNIT($,.STERADIAN.)SOLID_ANGLE_UNIT());
#63=(LENGTH_UNIT()NAMED_UNIT(*)SI_UNIT(.MILLI.,.METRE.));
#65=UNCERTAINTY_MEASURE_WITH_UNIT(LENGTH_MEASURE(0.000001000000000),#63,'DISTANCE_ACCURACY_VALUE','');
#67=(GEOMETRIC_REPRESENTATION_CONTEXT(3)GLOBAL_UNCERTAINTY_ASSIGNED_CONTEXT((#65))GLOBAL_UNIT_ASSIGNED_CONTEXT((#55,#59,#63))REPRESENTATION_CONTEXT('','3D'));
#68=CARTESIAN_POINT('',(-19.500000000000000,-42.0,0.0));
#69=DIRECTION('',(-0.707106781186546,-0.707106781186549,0.0));
#70=DIRECTION('',(0.0,0.0,1.0));
#71=AXIS2_PLACEMENT_3D('',#68,#69,#70);
#72=PLANE('',#71);
#73=CARTESIAN_POINT('',(-19.0,-42.500000000000000,7.000000000000001));
#74=VERTEX_POINT('',#73);
#75=CARTESIAN_POINT('',(-20.0,-41.500000000000000,7.000000000000001));
#76=VERTEX_POINT('',#75);
#77=CARTESIAN_POINT('',(-19.0,-42.500000000000000,7.000000000000001));
#78=DIRECTION('',(-0.707106781186547,0.707106781186547,0.0));
#79=VECTOR('',#78,1.414213562373095);
#80=LINE('',#77,#79);
#81=EDGE_CURVE('',#74,#76,#80,.T.);
#82=ORIENTED_EDGE('',*,*,#81,.T.);
#83=CARTESIAN_POINT('',(-20.0,-41.500000000000000,0.0));
#84=VERTEX_POINT('',#83);
#85=CARTESIAN_POINT('',(-20.0,-41.500000000000000,7.000000000000001));
#86=DIRECTION('',(0.0,0.0,-1.0));
#87=VECTOR('',#86,7.000000000000001);
#88=LINE('',#85,#87);
#89=EDGE_CURVE('',#76,#84,#88,.T.);
#90=ORIENTED_EDGE('',*,*,#89,.T.);
#91=CARTESIAN_POINT('',(-19.0,-42.500000000000000,0.0));
#92=VERTEX_POINT('',#91);
#93=CARTESIAN_POINT('',(-20.0,-41.500000000000000,0.0));
#94=DIRECTION('',(0.707106781186547,-0.707106781186547,0.0));
#95=VECTOR('',#94,1.414213562373095);
#96=LINE('',#93,#95);
#97=EDGE_CURVE('',#84,#92,#96,.T.);
#98=ORIENTED_EDGE('',*,*,#97,.T.);
#99=CARTESIAN_POINT('',(-19.0,-42.500000000000000,0.0));
#100=DIRECTION('',(0.0,0.0,1.0));
#101=VECTOR('',#100,7.000000000000001);
#102=LINE('',#99,#101);
#103=EDGE_CURVE('',#92,#74,#102,.T.);
#104=ORIENTED_EDGE('',*,*,#103,.T.);
#105=EDGE_LOOP('',(#82,#90,#98,#104));
#106=FACE_OUTER_BOUND('',#105,.T.);
#107=ADVANCED_FACE('',(#106),#72,.T.);
#108=CARTESIAN_POINT('',(0.0,0.0,0.0));
#109=DIRECTION('',(0.0,0.0,1.0));
#110=DIRECTION('',(1.0,0.0,0.0));
#111=AXIS2_PLACEMENT_3D('',#108,#109,#110);
#112=PLANE('',#111);
#113=ORIENTED_EDGE('',*,*,#97,.F.);
#114=CARTESIAN_POINT('',(-20.0,41.500000000000000,0.0));
#115=VERTEX_POINT('',#114);
#116=CARTESIAN_POINT('',(-20.0,-41.500000000000000,0.0));
#117=DIRECTION('',(0.0,1.0,0.0));
#118=VECTOR('',#117,83.0);
#119=LINE('',#116,#118);
#120=EDGE_CURVE('',#84,#115,#119,.T.);
#121=ORIENTED_EDGE('',*,*,#120,.T.);
#122=CARTESIAN_POINT('',(-19.0,42.500000000000000,0.0));
#123=VERTEX_POINT('',#122);
#124=CARTESIAN_POINT('',(-19.0,42.500000000000000,0.0));
#125=DIRECTION('',(-0.707106781186547,-0.707106781186547,0.0));
#126=VECTOR('',#125,1.414213562373095);
#127=LINE('',#124,#126);
#128=EDGE_CURVE('',#123,#115,#127,.T.);
#129=ORIENTED_EDGE('',*,*,#128,.F.);
#130=CARTESIAN_POINT('',(-3.500000000000005,42.500000000000000,0.0));
#131=VERTEX_POINT('',#130);
#132=CARTESIAN_POINT('',(-19.0,42.500000000000000,0.0));
#133=DIRECTION('',(1.0,0.0,0.0));
#134=VECTOR('',#133,15.499999999999995);
#135=LINE('',#132,#134);
#136=EDGE_CURVE('',#123,#131,#135,.T.);
#137=ORIENTED_EDGE('',*,*,#136,.T.);
#138=CARTESIAN_POINT('',(-3.500000000000001,25.0,0.0));
#139=VERTEX_POINT('',#138);
#140=CARTESIAN_POINT('',(-3.500000000000005,42.500000000000000,0.0));
#141=DIRECTION('',(0.0,-1.0,0.0));
#142=VECTOR('',#141,17.500000000000000);
#143=LINE('',#140,#142);
#144=EDGE_CURVE('',#131,#139,#143,.T.);
#145=ORIENTED_EDGE('',*,*,#144,.T.);
#146=CARTESIAN_POINT('',(3.500000000000000,25.0,0.0));
#147=VERTEX_POINT('',#146);
#148=CARTESIAN_POINT('',(0.0,25.0,0.0));
#149=DIRECTION('',(0.0,0.0,1.0));
#150=DIRECTION('',(-1.0,0.0,0.0));
#151=AXIS2_PLACEMENT_3D('',#148,#149,#150);
#152=CIRCLE('',#151,3.500000000000000);
#153=EDGE_CURVE('',#139,#147,#152,.T.);
#154=ORIENTED_EDGE('',*,*,#153,.T.);
#155=CARTESIAN_POINT('',(3.499999999999996,42.500000000000000,0.0));
#156=VERTEX_POINT('',#155);
#157=CARTESIAN_POINT('',(3.500000000000000,25.0,0.0));
#158=DIRECTION('',(0.0,1.0,0.0));
#159=VECTOR('',#158,17.500000000000000);
#160=LINE('',#157,#159);
#161=EDGE_CURVE('',#147,#156,#160,.T.);
#162=ORIENTED_EDGE('',*,*,#161,.T.);
#163=CARTESIAN_POINT('',(19.0,42.500000000000000,0.0));
#164=VERTEX_POINT('',#163);
#165=CARTESIAN_POINT('',(3.499999999999996,42.500000000000000,0.0));
#166=DIRECTION('',(1.0,0.0,0.0));
#167=VECTOR('',#166,15.500000000000004);
#168=LINE('',#165,#167);
#169=EDGE_CURVE('',#156,#164,#168,.T.);
#170=ORIENTED_EDGE('',*,*,#169,.T.);
#171=CARTESIAN_POINT('',(20.0,41.500000000000000,0.0));
#172=VERTEX_POINT('',#171);
#173=CARTESIAN_POINT('',(20.0,41.500000000000000,0.0));
#174=DIRECTION('',(-0.707106781186547,0.707106781186547,0.0));
#175=VECTOR('',#174,1.414213562373095);
#176=LINE('',#173,#175);
#177=EDGE_CURVE('',#172,#164,#176,.T.);
#178=ORIENTED_EDGE('',*,*,#177,.F.);
#179=CARTESIAN_POINT('',(20.0,-41.500000000000000,0.0));
#180=VERTEX_POINT('',#179);
#181=CARTESIAN_POINT('',(20.0,41.500000000000000,0.0));
#182=DIRECTION('',(0.0,-1.0,0.0));
#183=VECTOR('',#182,83.0);
#184=LINE('',#181,#183);
#185=EDGE_CURVE('',#172,#180,#184,.T.);
#186=ORIENTED_EDGE('',*,*,#185,.T.);
#187=CARTESIAN_POINT('',(19.0,-42.500000000000000,0.0));
#188=VERTEX_POINT('',#187);
#189=CARTESIAN_POINT('',(19.0,-42.500000000000000,0.0));
#190=DIRECTION('',(0.707106781186547,0.707106781186547,0.0));
#191=VECTOR('',#190,1.414213562373095);
#192=LINE('',#189,#191);
#193=EDGE_CURVE('',#188,#180,#192,.T.);
#194=ORIENTED_EDGE('',*,*,#193,.F.);
#195=CARTESIAN_POINT('',(3.500000000000014,-42.500000000000000,0.0));
#196=VERTEX_POINT('',#195);
#197=CARTESIAN_POINT('',(19.0,-42.500000000000000,0.0));
#198=DIRECTION('',(-1.0,0.0,0.0));
#199=VECTOR('',#198,15.499999999999986);
#200=LINE('',#197,#199);
#201=EDGE_CURVE('',#188,#196,#200,.T.);
#202=ORIENTED_EDGE('',*,*,#201,.T.);
#203=CARTESIAN_POINT('',(3.500000000000000,-24.999999323794913,0.0));
#204=VERTEX_POINT('',#203);
#205=CARTESIAN_POINT('',(3.500000000000014,-42.500000000000000,0.0));
#206=DIRECTION('',(0.0,1.0,0.0));
#207=VECTOR('',#206,17.500000676205087);
#208=LINE('',#205,#207);
#209=EDGE_CURVE('',#196,#204,#208,.T.);
#210=ORIENTED_EDGE('',*,*,#209,.T.);
#211=CARTESIAN_POINT('',(-3.500000000000000,-25.0,0.0));
#212=VERTEX_POINT('',#211);
#213=CARTESIAN_POINT('',(0.0,-25.0,0.0));
#214=DIRECTION('',(0.0,0.0,1.0));
#215=DIRECTION('',(0.999999999999981,0.000000193201454,0.0));
#216=AXIS2_PLACEMENT_3D('',#213,#214,#215);
#217=CIRCLE('',#216,3.499999999999995);
#218=EDGE_CURVE('',#204,#212,#217,.T.);
#219=ORIENTED_EDGE('',*,*,#218,.T.);
#220=CARTESIAN_POINT('',(-3.499999999999988,-42.500000000000000,0.0));
#221=VERTEX_POINT('',#220);
#222=CARTESIAN_POINT('',(-3.500000000000000,-25.0,0.0));
#223=DIRECTION('',(0.0,-1.0,0.0));
#224=VECTOR('',#223,17.500000000000000);
#225=LINE('',#222,#224);
#226=EDGE_CURVE('',#212,#221,#225,.T.);
#227=ORIENTED_EDGE('',*,*,#226,.T.);
#228=CARTESIAN_POINT('',(-3.499999999999988,-42.500000000000000,0.0));
#229=DIRECTION('',(-1.0,0.0,0.0));
#230=VECTOR('',#229,15.500000000000012);
#231=LINE('',#228,#230);
#232=EDGE_CURVE('',#221,#92,#231,.T.);
#233=ORIENTED_EDGE('',*,*,#232,.T.);
#234=EDGE_LOOP('',(#113,#121,#129,#137,#145,#154,#162,#170,#178,#186,#194,#202,#210,#219,#227,#233));
#235=FACE_OUTER_BOUND('',#234,.T.);
#236=CARTESIAN_POINT('',(-17.229500000000002,-16.0,0.0));
#237=VERTEX_POINT('',#236);
#238=CARTESIAN_POINT('',(-16.0,-16.0,0.0));
#239=DIRECTION('',(0.0,0.0,1.0));
#240=DIRECTION('',(1.0,0.0,0.0));
#241=AXIS2_PLACEMENT_3D('',#238,#239,#240);
#242=CIRCLE('',#241,1.229500000000000);
#243=EDGE_CURVE('',#237,#237,#242,.T.);
#244=ORIENTED_EDGE('',*,*,#243,.T.);
#245=EDGE_LOOP('',(#244));
#246=FACE_BOUND('',#245,.T.);
#247=CARTESIAN_POINT('',(-1.229499999999999,-16.0,0.0));
#248=VERTEX_POINT('',#247);
#249=CARTESIAN_POINT('',(0.0,-16.0,0.0));
#250=DIRECTION('',(0.0,0.0,1.0));
#251=DIRECTION('',(1.0,0.0,0.0));
#252=AXIS2_PLACEMENT_3D('',#249,#250,#251);
#253=CIRCLE('',#252,1.229500000000000);
#254=EDGE_CURVE('',#248,#248,#253,.T.);
#255=ORIENTED_EDGE('',*,*,#254,.T.);
#256=EDGE_LOOP('',(#255));
#257=FACE_BOUND('',#256,.T.);
#258=CARTESIAN_POINT('',(14.770500000000002,-16.0,0.0));
#259=VERTEX_POINT('',#258);
#260=CARTESIAN_POINT('',(16.0,-16.0,0.0));
#261=DIRECTION('',(0.0,0.0,1.0));
#262=DIRECTION('',(1.0,0.0,0.0));
#263=AXIS2_PLACEMENT_3D('',#260,#261,#262);
#264=CIRCLE('',#263,1.229500000000000);
#265=EDGE_CURVE('',#259,#259,#264,.T.);
#266=ORIENTED_EDGE('',*,*,#265,.T.);
#267=EDGE_LOOP('',(#266));
#268=FACE_BOUND('',#267,.T.);
#269=CARTESIAN_POINT('',(-17.229500000000002,0.0,0.0));
#270=VERTEX_POINT('',#269);
#271=CARTESIAN_POINT('',(-16.0,0.0,0.0));
#272=DIRECTION('',(0.0,0.0,1.0));
#273=DIRECTION('',(1.0,0.0,0.0));
#274=AXIS2_PLACEMENT_3D('',#271,#272,#273);
#275=CIRCLE('',#274,1.229500000000000);
#276=EDGE_CURVE('',#270,#270,#275,.T.);
#277=ORIENTED_EDGE('',*,*,#276,.T.);
#278=EDGE_LOOP('',(#277));
#279=FACE_BOUND('',#278,.T.);
#280=CARTESIAN_POINT('',(14.770500000000002,0.0,0.0));
#281=VERTEX_POINT('',#280);
#282=CARTESIAN_POINT('',(16.0,0.0,0.0));
#283=DIRECTION('',(0.0,0.0,1.0));
#284=DIRECTION('',(1.0,0.0,0.0));
#285=AXIS2_PLACEMENT_3D('',#282,#283,#284);
#286=CIRCLE('',#285,1.229500000000000);
#287=EDGE_CURVE('',#281,#281,#286,.T.);
#288=ORIENTED_EDGE('',*,*,#287,.T.);
#289=EDGE_LOOP('',(#288));
#290=FACE_BOUND('',#289,.T.);
#291=CARTESIAN_POINT('',(-17.229500000000002,16.0,0.0));
#292=VERTEX_POINT('',#291);
#293=CARTESIAN_POINT('',(-16.0,16.0,0.0));
#294=DIRECTION('',(0.0,0.0,1.0));
#295=DIRECTION('',(1.0,0.0,0.0));
#296=AXIS2_PLACEMENT_3D('',#293,#294,#295);
#297=CIRCLE('',#296,1.229500000000000);
#298=EDGE_CURVE('',#292,#292,#297,.T.);
#299=ORIENTED_EDGE('',*,*,#298,.T.);
#300=EDGE_LOOP('',(#299));
#301=FACE_BOUND('',#300,.T.);
#302=CARTESIAN_POINT('',(-1.229499999999999,16.0,0.0));
#303=VERTEX_POINT('',#302);
#304=CARTESIAN_POINT('',(0.0,16.0,0.0));
#305=DIRECTION('',(0.0,0.0,1.0));
#306=DIRECTION('',(1.0,0.0,0.0));
#307=AXIS2_PLACEMENT_3D('',#304,#305,#306);
#308=CIRCLE('',#307,1.229500000000000);
#309=EDGE_CURVE('',#303,#303,#308,.T.);
#310=ORIENTED_EDGE('',*,*,#309,.T.);
#311=EDGE_LOOP('',(#310));
#312=FACE_BOUND('',#311,.T.);
#313=CARTESIAN_POINT('',(14.770500000000002,16.0,0.0));
#314=VERTEX_POINT('',#313);
#315=CARTESIAN_POINT('',(16.0,16.0,0.0));
#316=DIRECTION('',(0.0,0.0,1.0));
#317=DIRECTION('',(1.0,0.0,0.0));
#318=AXIS2_PLACEMENT_3D('',#315,#316,#317);
#319=CIRCLE('',#318,1.229500000000000);
#320=EDGE_CURVE('',#314,#314,#319,.T.);
#321=ORIENTED_EDGE('',*,*,#320,.T.);
#322=EDGE_LOOP('',(#321));
#323=FACE_BOUND('',#322,.T.);
#324=CARTESIAN_POINT('',(-2.458500000000000,-3.010695E-016,0.0));
#325=VERTEX_POINT('',#324);
#326=CARTESIAN_POINT('',(0.0,0.0,0.0));
#327=DIRECTION('',(0.0,0.0,1.0));
#328=DIRECTION('',(1.0,0.0,0.0));
#329=AXIS2_PLACEMENT_3D('',#326,#327,#328);
#330=CIRCLE('',#329,2.458500000000000);
#331=EDGE_CURVE('',#325,#325,#330,.T.);
#332=ORIENTED_EDGE('',*,*,#331,.T.);
#333=EDGE_LOOP('',(#332));
#334=FACE_BOUND('',#333,.T.);
#335=ADVANCED_FACE('',(#235,#246,#257,#268,#279,#290,#301,#312,#323,#334),#112,.F.);
#336=CARTESIAN_POINT('',(-20.0,-42.500000000000000,0.0));
#337=DIRECTION('',(-1.0,0.0,0.0));
#338=DIRECTION('',(0.0,0.0,1.0));
#339=AXIS2_PLACEMENT_3D('',#336,#337,#338);
#340=PLANE('',#339);
#341=ORIENTED_EDGE('',*,*,#89,.F.);
#342=CARTESIAN_POINT('',(-20.0,41.500000000000000,7.000000000000001));
#343=VERTEX_POINT('',#342);
#344=CARTESIAN_POINT('',(-20.0,-41.500000000000000,7.000000000000001));
#345=DIRECTION('',(0.0,1.0,0.0));
#346=VECTOR('',#345,83.0);
#347=LINE('',#344,#346);
#348=EDGE_CURVE('',#76,#343,#347,.T.);
#349=ORIENTED_EDGE('',*,*,#348,.T.);
#350=CARTESIAN_POINT('',(-20.0,41.500000000000000,0.0));
#351=DIRECTION('',(0.0,0.0,1.0));
#352=VECTOR('',#351,7.000000000000001);
#353=LINE('',#350,#352);
#354=EDGE_CURVE('',#115,#343,#353,.T.);
#355=ORIENTED_EDGE('',*,*,#354,.F.);
#356=ORIENTED_EDGE('',*,*,#120,.F.);
#357=EDGE_LOOP('',(#341,#349,#355,#356));
#358=FACE_OUTER_BOUND('',#357,.T.);
#359=ADVANCED_FACE('',(#358),#340,.T.);
#360=CARTESIAN_POINT('',(-19.500000000000000,42.0,0.0));
#361=DIRECTION('',(-0.707106781186546,0.707106781186549,0.0));
#362=DIRECTION('',(0.0,0.0,1.0));
#363=AXIS2_PLACEMENT_3D('',#360,#361,#362);
#364=PLANE('',#363);
#365=CARTESIAN_POINT('',(-19.0,42.500000000000000,7.000000000000001));
#366=VERTEX_POINT('',#365);
#367=CARTESIAN_POINT('',(-20.0,41.500000000000000,7.000000000000001));
#368=DIRECTION('',(0.707106781186547,0.707106781186547,0.0));
#369=VECTOR('',#368,1.414213562373095);
#370=LINE('',#367,#369);
#371=EDGE_CURVE('',#343,#366,#370,.T.);
#372=ORIENTED_EDGE('',*,*,#371,.T.);
#373=CARTESIAN_POINT('',(-19.0,42.500000000000000,7.000000000000001));
#374=DIRECTION('',(0.0,0.0,-1.0));
#375=VECTOR('',#374,7.000000000000001);
#376=LINE('',#373,#375);
#377=EDGE_CURVE('',#366,#123,#376,.T.);
#378=ORIENTED_EDGE('',*,*,#377,.T.);
#379=ORIENTED_EDGE('',*,*,#128,.T.);
#380=ORIENTED_EDGE('',*,*,#354,.T.);
#381=EDGE_LOOP('',(#372,#378,#379,#380));
#382=FACE_OUTER_BOUND('',#381,.T.);
#383=ADVANCED_FACE('',(#382),#364,.T.);
#384=CARTESIAN_POINT('',(19.500000000000000,42.0,0.0));
#385=DIRECTION('',(0.707106781186546,0.707106781186549,0.0));
#386=DIRECTION('',(0.0,0.0,-1.0));
#387=AXIS2_PLACEMENT_3D('',#384,#385,#386);
#388=PLANE('',#387);
#389=CARTESIAN_POINT('',(19.0,42.500000000000000,7.000000000000001));
#390=VERTEX_POINT('',#389);
#391=CARTESIAN_POINT('',(20.0,41.500000000000000,7.000000000000001));
#392=VERTEX_POINT('',#391);
#393=CARTESIAN_POINT('',(19.0,42.500000000000000,7.000000000000001));
#394=DIRECTION('',(0.707106781186547,-0.707106781186547,0.0));
#395=VECTOR('',#394,1.414213562373095);
#396=LINE('',#393,#395);
#397=EDGE_CURVE('',#390,#392,#396,.T.);
#398=ORIENTED_EDGE('',*,*,#397,.T.);
#399=CARTESIAN_POINT('',(20.0,41.500000000000000,7.000000000000001));
#400=DIRECTION('',(0.0,0.0,-1.0));
#401=VECTOR('',#400,7.000000000000001);
#402=LINE('',#399,#401);
#403=EDGE_CURVE('',#392,#172,#402,.T.);
#404=ORIENTED_EDGE('',*,*,#403,.T.);
#405=ORIENTED_EDGE('',*,*,#177,.T.);
#406=CARTESIAN_POINT('',(19.0,42.500000000000000,0.0));
#407=DIRECTION('',(0.0,0.0,1.0));
#408=VECTOR('',#407,7.000000000000001);
#409=LINE('',#406,#408);
#410=EDGE_CURVE('',#164,#390,#409,.T.);
#411=ORIENTED_EDGE('',*,*,#410,.T.);
#412=EDGE_LOOP('',(#398,#404,#405,#411));
#413=FACE_OUTER_BOUND('',#412,.T.);
#414=ADVANCED_FACE('',(#413),#388,.T.);
#415=CARTESIAN_POINT('',(20.0,42.500000000000000,0.0));
#416=DIRECTION('',(1.0,0.0,0.0));
#417=DIRECTION('',(0.0,0.0,-1.0));
#418=AXIS2_PLACEMENT_3D('',#415,#416,#417);
#419=PLANE('',#418);
#420=ORIENTED_EDGE('',*,*,#403,.F.);
#421=CARTESIAN_POINT('',(20.0,-41.500000000000000,7.000000000000001));
#422=VERTEX_POINT('',#421);
#423=CARTESIAN_POINT('',(20.0,41.500000000000000,7.000000000000001));
#424=DIRECTION('',(0.0,-1.0,0.0));
#425=VECTOR('',#424,83.0);
#426=LINE('',#423,#425);
#427=EDGE_CURVE('',#392,#422,#426,.T.);
#428=ORIENTED_EDGE('',*,*,#427,.T.);
#429=CARTESIAN_POINT('',(20.0,-41.500000000000000,0.0));
#430=DIRECTION('',(0.0,0.0,1.0));
#431=VECTOR('',#430,7.000000000000001);
#432=LINE('',#429,#431);
#433=EDGE_CURVE('',#180,#422,#432,.T.);
#434=ORIENTED_EDGE('',*,*,#433,.F.);
#435=ORIENTED_EDGE('',*,*,#185,.F.);
#436=EDGE_LOOP('',(#420,#428,#434,#435));
#437=FACE_OUTER_BOUND('',#436,.T.);
#438=ADVANCED_FACE('',(#437),#419,.T.);
#439=CARTESIAN_POINT('',(19.500000000000000,-42.0,0.0));
#440=DIRECTION('',(0.707106781186546,-0.707106781186549,0.0));
#441=DIRECTION('',(0.0,0.0,-1.0));
#442=AXIS2_PLACEMENT_3D('',#439,#440,#441);
#443=PLANE('',#442);
#444=CARTESIAN_POINT('',(19.0,-42.500000000000000,7.000000000000001));
#445=VERTEX_POINT('',#444);
#446=CARTESIAN_POINT('',(20.0,-41.500000000000000,7.000000000000001));
#447=DIRECTION('',(-0.707106781186547,-0.707106781186547,0.0));
#448=VECTOR('',#447,1.414213562373095);
#449=LINE('',#446,#448);
#450=EDGE_CURVE('',#422,#445,#449,.T.);
#451=ORIENTED_EDGE('',*,*,#450,.T.);
#452=CARTESIAN_POINT('',(19.0,-42.500000000000000,7.000000000000001));
#453=DIRECTION('',(0.0,0.0,-1.0));
#454=VECTOR('',#453,7.000000000000001);
#455=LINE('',#452,#454);
#456=EDGE_CURVE('',#445,#188,#455,.T.);
#457=ORIENTED_EDGE('',*,*,#456,.T.);
#458=ORIENTED_EDGE('',*,*,#193,.T.);
#459=ORIENTED_EDGE('',*,*,#433,.T.);
#460=EDGE_LOOP('',(#451,#457,#458,#459));
#461=FACE_OUTER_BOUND('',#460,.T.);
#462=ADVANCED_FACE('',(#461),#443,.T.);
#463=CARTESIAN_POINT('',(-17.229500000000002,-16.0,7.000000000000014));
#464=CARTESIAN_POINT('',(-17.229500000000002,-16.0,0.0));
#465=CARTESIAN_POINT('',(-17.229500000000002,-17.229500000000002,7.000000000000014));
#466=CARTESIAN_POINT('',(-17.229500000000002,-17.229500000000002,0.0));
#467=CARTESIAN_POINT('',(-16.0,-17.229500000000002,7.000000000000014));
#468=CARTESIAN_POINT('',(-16.0,-17.229500000000002,0.0));
#469=CARTESIAN_POINT('',(-14.770499999999998,-17.229500000000002,7.000000000000014));
#470=CARTESIAN_POINT('',(-14.770499999999998,-17.229500000000002,0.0));
#471=CARTESIAN_POINT('',(-14.770499999999998,-16.0,7.000000000000014));
#472=CARTESIAN_POINT('',(-14.770499999999998,-16.0,0.0));
#473=CARTESIAN_POINT('',(-14.770499999999998,-14.770499999999998,7.000000000000014));
#474=CARTESIAN_POINT('',(-14.770499999999998,-14.770499999999998,0.0));
#475=CARTESIAN_POINT('',(-16.0,-14.770499999999998,7.000000000000014));
#476=CARTESIAN_POINT('',(-16.0,-14.770499999999998,0.0));
#477=CARTESIAN_POINT('',(-17.229500000000002,-14.770499999999998,7.000000000000014));
#478=CARTESIAN_POINT('',(-17.229500000000002,-14.770499999999998,0.0));
#479=CARTESIAN_POINT('',(-17.229500000000002,-16.0,7.000000000000014));
#480=CARTESIAN_POINT('',(-17.229500000000002,-16.0,0.0));
#488=(BOUNDED_SURFACE()B_SPLINE_SURFACE(1,2,((#463,#465,#467,#469,#471,#473,#475,#477,#479),(#464,#466,#468,#470,#472,#474,#476,#478,#480)),.UNSPECIFIED.,.F.,.T.,.U.)B_SPLINE_SURFACE_WITH_KNOTS((2,2),(3,2,2,2,3),(-76.618064911464415,-70.924693622322479),(0.0,1.931294083794325,3.862588167588651,5.793882251382976,7.725176335177301),.UNSPECIFIED.)GEOMETRIC_REPRESENTATION_ITEM()RATIONAL_B_SPLINE_SURFACE(((1.0,0.707106781186548,1.0,0.707106781186548,1.0,0.707106781186548,1.0,0.707106781186548,1.0),(1.0,0.707106781186548,1.0,0.707106781186548,1.0,0.707106781186548,1.0,0.707106781186548,1.0)))REPRESENTATION_ITEM('')SURFACE());
#489=ORIENTED_EDGE('',*,*,#243,.F.);
#490=EDGE_LOOP('',(#489));
#491=FACE_OUTER_BOUND('',#490,.T.);
#492=CARTESIAN_POINT('',(-14.770500000000002,-16.0,7.000000000000001));
#493=VERTEX_POINT('',#492);
#494=CARTESIAN_POINT('',(-16.0,-16.0,6.999999999999993));
#495=DIRECTION('',(0.0,0.0,-1.0));
#496=DIRECTION('',(1.0,0.0,0.0));
#497=AXIS2_PLACEMENT_3D('',#494,#495,#496);
#498=CIRCLE('',#497,1.229500000000000);
#499=EDGE_CURVE('',#493,#493,#498,.T.);
#500=ORIENTED_EDGE('',*,*,#499,.F.);
#501=EDGE_LOOP('',(#500));
#502=FACE_BOUND('',#501,.T.);
#503=ADVANCED_FACE('',(#491,#502),#488,.F.);
#504=CARTESIAN_POINT('',(-1.229500000000000,-16.0,7.000000000000014));
#505=CARTESIAN_POINT('',(-1.229500000000000,-16.0,0.0));
#506=CARTESIAN_POINT('',(-1.229500000000000,-17.229500000000002,7.000000000000014));
#507=CARTESIAN_POINT('',(-1.229500000000000,-17.229500000000002,0.0));
#508=CARTESIAN_POINT('',(0.0,-17.229500000000002,7.000000000000014));
#509=CARTESIAN_POINT('',(0.0,-17.229500000000002,0.0));
#510=CARTESIAN_POINT('',(1.229500000000000,-17.229500000000002,7.000000000000014));
#511=CARTESIAN_POINT('',(1.229500000000000,-17.229500000000002,0.0));
#512=CARTESIAN_POINT('',(1.229500000000000,-16.0,7.000000000000014));
#513=CARTESIAN_POINT('',(1.229500000000000,-16.0,0.0));
#514=CARTESIAN_POINT('',(1.229500000000000,-14.770500000000000,7.000000000000014));
#515=CARTESIAN_POINT('',(1.229500000000000,-14.770500000000000,0.0));
#516=CARTESIAN_POINT('',(0.0,-14.770500000000000,7.000000000000014));
#517=CARTESIAN_POINT('',(0.0,-14.770500000000000,0.0));
#518=CARTESIAN_POINT('',(-1.229500000000000,-14.770500000000000,7.000000000000014));
#519=CARTESIAN_POINT('',(-1.229500000000000,-14.770500000000000,0.0));
#520=CARTESIAN_POINT('',(-1.229500000000000,-16.0,7.000000000000014));
#521=CARTESIAN_POINT('',(-1.229500000000000,-16.0,0.0));
#529=(BOUNDED_SURFACE()B_SPLINE_SURFACE(1,2,((#504,#506,#508,#510,#512,#514,#516,#518,#520),(#505,#507,#509,#511,#513,#515,#517,#519,#521)),.UNSPECIFIED.,.F.,.T.,.U.)B_SPLINE_SURFACE_WITH_KNOTS((2,2),(3,2,2,2,3),(-76.618064911464415,-70.924693622322479),(0.0,1.931294083794325,3.862588167588651,5.793882251382976,7.725176335177301),.UNSPECIFIED.)GEOMETRIC_REPRESENTATION_ITEM()RATIONAL_B_SPLINE_SURFACE(((1.0,0.707106781186548,1.0,0.707106781186548,1.0,0.707106781186548,1.0,0.707106781186548,1.0),(1.0,0.707106781186548,1.0,0.707106781186548,1.0,0.707106781186548,1.0,0.707106781186548,1.0)))REPRESENTATION_ITEM('')SURFACE());
#530=ORIENTED_EDGE('',*,*,#254,.F.);
#531=EDGE_LOOP('',(#530));
#532=FACE_OUTER_BOUND('',#531,.T.);
#533=CARTESIAN_POINT('',(1.229499999999999,-16.0,7.000000000000001));
#534=VERTEX_POINT('',#533);
#535=CARTESIAN_POINT('',(0.0,-16.0,6.999999999999993));
#536=DIRECTION('',(0.0,0.0,-1.0));
#537=DIRECTION('',(1.0,0.0,0.0));
#538=AXIS2_PLACEMENT_3D('',#535,#536,#537);
#539=CIRCLE('',#538,1.229500000000000);
#540=EDGE_CURVE('',#534,#534,#539,.T.);
#541=ORIENTED_EDGE('',*,*,#540,.F.);
#542=EDGE_LOOP('',(#541));
#543=FACE_BOUND('',#542,.T.);
#544=ADVANCED_FACE('',(#532,#543),#529,.F.);
#545=CARTESIAN_POINT('',(14.770500000000000,-16.0,7.000000000000014));
#546=CARTESIAN_POINT('',(14.770500000000000,-16.0,0.0));
#547=CARTESIAN_POINT('',(14.770500000000000,-17.229499999999998,7.000000000000014));
#548=CARTESIAN_POINT('',(14.770500000000000,-17.229499999999998,0.0));
#549=CARTESIAN_POINT('',(16.0,-17.229500000000002,7.000000000000014));
#550=CARTESIAN_POINT('',(16.0,-17.229500000000002,0.0));
#551=CARTESIAN_POINT('',(17.229499999999998,-17.229499999999998,7.000000000000014));
#552=CARTESIAN_POINT('',(17.229499999999998,-17.229499999999998,0.0));
#553=CARTESIAN_POINT('',(17.229500000000002,-16.0,7.000000000000014));
#554=CARTESIAN_POINT('',(17.229500000000002,-16.0,0.0));
#555=CARTESIAN_POINT('',(17.229499999999998,-14.770500000000000,7.000000000000014));
#556=CARTESIAN_POINT('',(17.229499999999998,-14.770500000000000,0.0));
#557=CARTESIAN_POINT('',(16.0,-14.770500000000000,7.000000000000014));
#558=CARTESIAN_POINT('',(16.0,-14.770500000000000,0.0));
#559=CARTESIAN_POINT('',(14.770500000000000,-14.770500000000000,7.000000000000014));
#560=CARTESIAN_POINT('',(14.770500000000000,-14.770500000000000,0.0));
#561=CARTESIAN_POINT('',(14.770500000000000,-16.0,7.000000000000014));
#562=CARTESIAN_POINT('',(14.770500000000000,-16.0,0.0));
#570=(BOUNDED_SURFACE()B_SPLINE_SURFACE(1,2,((#545,#547,#549,#551,#553,#555,#557,#559,#561),(#546,#548,#550,#552,#554,#556,#558,#560,#562)),.UNSPECIFIED.,.F.,.T.,.U.)B_SPLINE_SURFACE_WITH_KNOTS((2,2),(3,2,2,2,3),(-76.618064911464415,-70.924693622322479),(0.0,1.931294083794325,3.862588167588651,5.793882251382976,7.725176335177301),.UNSPECIFIED.)GEOMETRIC_REPRESENTATION_ITEM()RATIONAL_B_SPLINE_SURFACE(((1.0,0.707106781186548,1.0,0.707106781186548,1.0,0.707106781186548,1.0,0.707106781186548,1.0),(1.0,0.707106781186548,1.0,0.707106781186548,1.0,0.707106781186548,1.0,0.707106781186548,1.0)))REPRESENTATION_ITEM('')SURFACE());
#571=ORIENTED_EDGE('',*,*,#265,.F.);
#572=EDGE_LOOP('',(#571));
#573=FACE_OUTER_BOUND('',#572,.T.);
#574=CARTESIAN_POINT('',(17.229500000000002,-16.0,7.000000000000001));
#575=VERTEX_POINT('',#574);
#576=CARTESIAN_POINT('',(16.0,-16.0,6.999999999999993));
#577=DIRECTION('',(0.0,0.0,-1.0));
#578=DIRECTION('',(1.0,0.0,0.0));
#579=AXIS2_PLACEMENT_3D('',#576,#577,#578);
#580=CIRCLE('',#579,1.229500000000000);
#581=EDGE_CURVE('',#575,#575,#580,.T.);
#582=ORIENTED_EDGE('',*,*,#581,.F.);
#583=EDGE_LOOP('',(#582));
#584=FACE_BOUND('',#583,.T.);
#585=ADVANCED_FACE('',(#573,#584),#570,.F.);
#586=CARTESIAN_POINT('',(-17.229500000000002,-1.505654E-016,7.000000000000014));
#587=CARTESIAN_POINT('',(-17.229500000000002,-1.505654E-016,0.0));
#588=CARTESIAN_POINT('',(-17.229500000000002,-1.229500000000002,7.000000000000014));
#589=CARTESIAN_POINT('',(-17.229500000000002,-1.229500000000002,0.0));
#590=CARTESIAN_POINT('',(-16.0,-1.229500000000002,7.000000000000014));
#591=CARTESIAN_POINT('',(-16.0,-1.229500000000002,0.0));
#592=CARTESIAN_POINT('',(-14.770499999999998,-1.229500000000001,7.000000000000014));
#593=CARTESIAN_POINT('',(-14.770499999999998,-1.229500000000001,0.0));
#594=CARTESIAN_POINT('',(-14.770499999999998,1.505654E-016,7.000000000000014));
#595=CARTESIAN_POINT('',(-14.770499999999998,1.505654E-016,0.0));
#596=CARTESIAN_POINT('',(-14.770499999999998,1.229500000000002,7.000000000000014));
#597=CARTESIAN_POINT('',(-14.770499999999998,1.229500000000002,0.0));
#598=CARTESIAN_POINT('',(-16.0,1.229500000000002,7.000000000000014));
#599=CARTESIAN_POINT('',(-16.0,1.229500000000002,0.0));
#600=CARTESIAN_POINT('',(-17.229500000000002,1.229500000000001,7.000000000000014));
#601=CARTESIAN_POINT('',(-17.229500000000002,1.229500000000001,0.0));
#602=CARTESIAN_POINT('',(-17.229500000000002,-1.505654E-016,7.000000000000014));
#603=CARTESIAN_POINT('',(-17.229500000000002,-1.505654E-016,0.0));
#611=(BOUNDED_SURFACE()B_SPLINE_SURFACE(1,2,((#586,#588,#590,#592,#594,#596,#598,#600,#602),(#587,#589,#591,#593,#595,#597,#599,#601,#603)),.UNSPECIFIED.,.F.,.T.,.U.)B_SPLINE_SURFACE_WITH_KNOTS((2,2),(3,2,2,2,3),(-76.618064911464415,-70.924693622322479),(0.0,1.931294083794325,3.862588167588651,5.793882251382976,7.725176335177301),.UNSPECIFIED.)GEOMETRIC_REPRESENTATION_ITEM()RATIONAL_B_SPLINE_SURFACE(((1.0,0.707106781186548,1.0,0.707106781186548,1.0,0.707106781186548,1.0,0.707106781186548,1.0),(1.0,0.707106781186548,1.0,0.707106781186548,1.0,0.707106781186548,1.0,0.707106781186548,1.0)))REPRESENTATION_ITEM('')SURFACE());
#612=ORIENTED_EDGE('',*,*,#276,.F.);
#613=EDGE_LOOP('',(#612));
#614=FACE_OUTER_BOUND('',#613,.T.);
#615=CARTESIAN_POINT('',(-14.770500000000002,0.0,7.000000000000001));
#616=VERTEX_POINT('',#615);
#617=CARTESIAN_POINT('',(-16.0,0.0,6.999999999999993));
#618=DIRECTION('',(0.0,0.0,-1.0));
#619=DIRECTION('',(1.0,0.0,0.0));
#620=AXIS2_PLACEMENT_3D('',#617,#618,#619);
#621=CIRCLE('',#620,1.229500000000000);
#622=EDGE_CURVE('',#616,#616,#621,.T.);
#623=ORIENTED_EDGE('',*,*,#622,.F.);
#624=EDGE_LOOP('',(#623));
#625=FACE_BOUND('',#624,.T.);
#626=ADVANCED_FACE('',(#614,#625),#611,.F.);
#627=CARTESIAN_POINT('',(14.770500000000000,-1.505654E-016,7.000000000000014));
#628=CARTESIAN_POINT('',(14.770500000000000,-1.505654E-016,0.0));
#629=CARTESIAN_POINT('',(14.770500000000000,-1.229500000000000,7.000000000000014));
#630=CARTESIAN_POINT('',(14.770500000000000,-1.229500000000000,0.0));
#631=CARTESIAN_POINT('',(16.0,-1.229500000000000,7.000000000000014));
#632=CARTESIAN_POINT('',(16.0,-1.229500000000000,0.0));
#633=CARTESIAN_POINT('',(17.229499999999998,-1.229499999999999,7.000000000000014));
#634=CARTESIAN_POINT('',(17.229499999999998,-1.229499999999999,0.0));
#635=CARTESIAN_POINT('',(17.229500000000002,1.505654E-016,7.000000000000014));
#636=CARTESIAN_POINT('',(17.229500000000002,1.505654E-016,0.0));
#637=CARTESIAN_POINT('',(17.229499999999998,1.229500000000000,7.000000000000014));
#638=CARTESIAN_POINT('',(17.229499999999998,1.229500000000000,0.0));
#639=CARTESIAN_POINT('',(16.0,1.229500000000000,7.000000000000014));
#640=CARTESIAN_POINT('',(16.0,1.229500000000000,0.0));
#641=CARTESIAN_POINT('',(14.770500000000000,1.229499999999999,7.000000000000014));
#642=CARTESIAN_POINT('',(14.770500000000000,1.229499999999999,0.0));
#643=CARTESIAN_POINT('',(14.770500000000000,-1.505654E-016,7.000000000000014));
#644=CARTESIAN_POINT('',(14.770500000000000,-1.505654E-016,0.0));
#652=(BOUNDED_SURFACE()B_SPLINE_SURFACE(1,2,((#627,#629,#631,#633,#635,#637,#639,#641,#643),(#628,#630,#632,#634,#636,#638,#640,#642,#644)),.UNSPECIFIED.,.F.,.T.,.U.)B_SPLINE_SURFACE_WITH_KNOTS((2,2),(3,2,2,2,3),(-76.618064911464415,-70.924693622322479),(0.0,1.931294083794325,3.862588167588651,5.793882251382976,7.725176335177301),.UNSPECIFIED.)GEOMETRIC_REPRESENTATION_ITEM()RATIONAL_B_SPLINE_SURFACE(((1.0,0.707106781186548,1.0,0.707106781186548,1.0,0.707106781186548,1.0,0.707106781186548,1.0),(1.0,0.707106781186548,1.0,0.707106781186548,1.0,0.707106781186548,1.0,0.707106781186548,1.0)))REPRESENTATION_ITEM('')SURFACE());
#653=ORIENTED_EDGE('',*,*,#287,.F.);
#654=EDGE_LOOP('',(#653));
#655=FACE_OUTER_BOUND('',#654,.T.);
#656=CARTESIAN_POINT('',(17.229500000000002,0.0,7.000000000000001));
#657=VERTEX_POINT('',#656);
#658=CARTESIAN_POINT('',(16.0,0.0,6.999999999999993));
#659=DIRECTION('',(0.0,0.0,-1.0));
#660=DIRECTION('',(1.0,0.0,0.0));
#661=AXIS2_PLACEMENT_3D('',#658,#659,#660);
#662=CIRCLE('',#661,1.229500000000000);
#663=EDGE_CURVE('',#657,#657,#662,.T.);
#664=ORIENTED_EDGE('',*,*,#663,.F.);
#665=EDGE_LOOP('',(#664));
#666=FACE_BOUND('',#665,.T.);
#667=ADVANCED_FACE('',(#655,#666),#652,.F.);
#668=CARTESIAN_POINT('',(-17.229500000000002,16.0,7.000000000000014));
#669=CARTESIAN_POINT('',(-17.229500000000002,16.0,0.0));
#670=CARTESIAN_POINT('',(-17.229500000000002,14.770499999999998,7.000000000000014));
#671=CARTESIAN_POINT('',(-17.229500000000002,14.770499999999998,0.0));
#672=CARTESIAN_POINT('',(-16.0,14.770499999999998,7.000000000000014));
#673=CARTESIAN_POINT('',(-16.0,14.770499999999998,0.0));
#674=CARTESIAN_POINT('',(-14.770499999999998,14.770499999999998,7.000000000000014));
#675=CARTESIAN_POINT('',(-14.770499999999998,14.770499999999998,0.0));
#676=CARTESIAN_POINT('',(-14.770499999999998,16.0,7.000000000000014));
#677=CARTESIAN_POINT('',(-14.770499999999998,16.0,0.0));
#678=CARTESIAN_POINT('',(-14.770499999999998,17.229500000000002,7.000000000000014));
#679=CARTESIAN_POINT('',(-14.770499999999998,17.229500000000002,0.0));
#680=CARTESIAN_POINT('',(-16.0,17.229500000000002,7.000000000000014));
#681=CARTESIAN_POINT('',(-16.0,17.229500000000002,0.0));
#682=CARTESIAN_POINT('',(-17.229500000000002,17.229500000000002,7.000000000000014));
#683=CARTESIAN_POINT('',(-17.229500000000002,17.229500000000002,0.0));
#684=CARTESIAN_POINT('',(-17.229500000000002,16.0,7.000000000000014));
#685=CARTESIAN_POINT('',(-17.229500000000002,16.0,0.0));
#693=(BOUNDED_SURFACE()B_SPLINE_SURFACE(1,2,((#668,#670,#672,#674,#676,#678,#680,#682,#684),(#669,#671,#673,#675,#677,#679,#681,#683,#685)),.UNSPECIFIED.,.F.,.T.,.U.)B_SPLINE_SURFACE_WITH_KNOTS((2,2),(3,2,2,2,3),(-76.618064911464415,-70.924693622322479),(0.0,1.931294083794325,3.862588167588651,5.793882251382976,7.725176335177301),.UNSPECIFIED.)GEOMETRIC_REPRESENTATION_ITEM()RATIONAL_B_SPLINE_SURFACE(((1.0,0.707106781186548,1.0,0.707106781186548,1.0,0.707106781186548,1.0,0.707106781186548,1.0),(1.0,0.707106781186548,1.0,0.707106781186548,1.0,0.707106781186548,1.0,0.707106781186548,1.0)))REPRESENTATION_ITEM('')SURFACE());
#694=ORIENTED_EDGE('',*,*,#298,.F.);
#695=EDGE_LOOP('',(#694));
#696=FACE_OUTER_BOUND('',#695,.T.);
#697=CARTESIAN_POINT('',(-14.770500000000002,16.0,7.000000000000001));
#698=VERTEX_POINT('',#697);
#699=CARTESIAN_POINT('',(-16.0,16.0,6.999999999999993));
#700=DIRECTION('',(0.0,0.0,-1.0));
#701=DIRECTION('',(1.0,0.0,0.0));
#702=AXIS2_PLACEMENT_3D('',#699,#700,#701);
#703=CIRCLE('',#702,1.229500000000000);
#704=EDGE_CURVE('',#698,#698,#703,.T.);
#705=ORIENTED_EDGE('',*,*,#704,.F.);
#706=EDGE_LOOP('',(#705));
#707=FACE_BOUND('',#706,.T.);
#708=ADVANCED_FACE('',(#696,#707),#693,.F.);
#709=CARTESIAN_POINT('',(-1.229500000000000,16.0,7.000000000000014));
#710=CARTESIAN_POINT('',(-1.229500000000000,16.0,0.0));
#711=CARTESIAN_POINT('',(-1.229500000000000,14.770500000000000,7.000000000000014));
#712=CARTESIAN_POINT('',(-1.229500000000000,14.770500000000000,0.0));
#713=CARTESIAN_POINT('',(0.0,14.770500000000000,7.000000000000014));
#714=CARTESIAN_POINT('',(0.0,14.770500000000000,0.0));
#715=CARTESIAN_POINT('',(1.229500000000000,14.770500000000000,7.000000000000014));
#716=CARTESIAN_POINT('',(1.229500000000000,14.770500000000000,0.0));
#717=CARTESIAN_POINT('',(1.229500000000000,16.0,7.000000000000014));
#718=CARTESIAN_POINT('',(1.229500000000000,16.0,0.0));
#719=CARTESIAN_POINT('',(1.229500000000000,17.229500000000002,7.000000000000014));
#720=CARTESIAN_POINT('',(1.229500000000000,17.229500000000002,0.0));
#721=CARTESIAN_POINT('',(0.0,17.229500000000002,7.000000000000014));
#722=CARTESIAN_POINT('',(0.0,17.229500000000002,0.0));
#723=CARTESIAN_POINT('',(-1.229500000000000,17.229500000000002,7.000000000000014));
#724=CARTESIAN_POINT('',(-1.229500000000000,17.229500000000002,0.0));
#725=CARTESIAN_POINT('',(-1.229500000000000,16.0,7.000000000000014));
#726=CARTESIAN_POINT('',(-1.229500000000000,16.0,0.0));
#734=(BOUNDED_SURFACE()B_SPLINE_SURFACE(1,2,((#709,#711,#713,#715,#717,#719,#721,#723,#725),(#710,#712,#714,#716,#718,#720,#722,#724,#726)),.UNSPECIFIED.,.F.,.T.,.U.)B_SPLINE_SURFACE_WITH_KNOTS((2,2),(3,2,2,2,3),(-76.618064911464415,-70.924693622322479),(0.0,1.931294083794325,3.862588167588651,5.793882251382976,7.725176335177301),.UNSPECIFIED.)GEOMETRIC_REPRESENTATION_ITEM()RATIONAL_B_SPLINE_SURFACE(((1.0,0.707106781186548,1.0,0.707106781186548,1.0,0.707106781186548,1.0,0.707106781186548,1.0),(1.0,0.707106781186548,1.0,0.707106781186548,1.0,0.707106781186548,1.0,0.707106781186548,1.0)))REPRESENTATION_ITEM('')SURFACE());
#735=ORIENTED_EDGE('',*,*,#309,.F.);
#736=EDGE_LOOP('',(#735));
#737=FACE_OUTER_BOUND('',#736,.T.);
#738=CARTESIAN_POINT('',(1.229499999999999,16.0,7.000000000000001));
#739=VERTEX_POINT('',#738);
#740=CARTESIAN_POINT('',(0.0,16.0,6.999999999999993));
#741=DIRECTION('',(0.0,0.0,-1.0));
#742=DIRECTION('',(1.0,0.0,0.0));
#743=AXIS2_PLACEMENT_3D('',#740,#741,#742);
#744=CIRCLE('',#743,1.229500000000000);
#745=EDGE_CURVE('',#739,#739,#744,.T.);
#746=ORIENTED_EDGE('',*,*,#745,.F.);
#747=EDGE_LOOP('',(#746));
#748=FACE_BOUND('',#747,.T.);
#749=ADVANCED_FACE('',(#737,#748),#734,.F.);
#750=CARTESIAN_POINT('',(14.770500000000000,16.0,7.000000000000014));
#751=CARTESIAN_POINT('',(14.770500000000000,16.0,0.0));
#752=CARTESIAN_POINT('',(14.770500000000000,14.770500000000000,7.000000000000014));
#753=CARTESIAN_POINT('',(14.770500000000000,14.770500000000000,0.0));
#754=CARTESIAN_POINT('',(16.0,14.770500000000000,7.000000000000014));
#755=CARTESIAN_POINT('',(16.0,14.770500000000000,0.0));
#756=CARTESIAN_POINT('',(17.229499999999998,14.770500000000000,7.000000000000014));
#757=CARTESIAN_POINT('',(17.229499999999998,14.770500000000000,0.0));
#758=CARTESIAN_POINT('',(17.229500000000002,16.0,7.000000000000014));
#759=CARTESIAN_POINT('',(17.229500000000002,16.0,0.0));
#760=CARTESIAN_POINT('',(17.229499999999998,17.229499999999998,7.000000000000014));
#761=CARTESIAN_POINT('',(17.229499999999998,17.229499999999998,0.0));
#762=CARTESIAN_POINT('',(16.0,17.229500000000002,7.000000000000014));
#763=CARTESIAN_POINT('',(16.0,17.229500000000002,0.0));
#764=CARTESIAN_POINT('',(14.770500000000000,17.229499999999998,7.000000000000014));
#765=CARTESIAN_POINT('',(14.770500000000000,17.229499999999998,0.0));
#766=CARTESIAN_POINT('',(14.770500000000000,16.0,7.000000000000014));
#767=CARTESIAN_POINT('',(14.770500000000000,16.0,0.0));
#775=(BOUNDED_SURFACE()B_SPLINE_SURFACE(1,2,((#750,#752,#754,#756,#758,#760,#762,#764,#766),(#751,#753,#755,#757,#759,#761,#763,#765,#767)),.UNSPECIFIED.,.F.,.T.,.U.)B_SPLINE_SURFACE_WITH_KNOTS((2,2),(3,2,2,2,3),(-76.618064911464415,-70.924693622322479),(0.0,1.931294083794325,3.862588167588651,5.793882251382976,7.725176335177301),.UNSPECIFIED.)GEOMETRIC_REPRESENTATION_ITEM()RATIONAL_B_SPLINE_SURFACE(((1.0,0.707106781186548,1.0,0.707106781186548,1.0,0.707106781186548,1.0,0.707106781186548,1.0),(1.0,0.707106781186548,1.0,0.707106781186548,1.0,0.707106781186548,1.0,0.707106781186548,1.0)))REPRESENTATION_ITEM('')SURFACE());
#776=ORIENTED_EDGE('',*,*,#320,.F.);
#777=EDGE_LOOP('',(#776));
#778=FACE_OUTER_BOUND('',#777,.T.);
#779=CARTESIAN_POINT('',(17.229500000000002,16.0,7.000000000000001));
#780=VERTEX_POINT('',#779);
#781=CARTESIAN_POINT('',(16.0,16.0,6.999999999999993));
#782=DIRECTION('',(0.0,0.0,-1.0));
#783=DIRECTION('',(1.0,0.0,0.0));
#784=AXIS2_PLACEMENT_3D('',#781,#782,#783);
#785=CIRCLE('',#784,1.229500000000000);
#786=EDGE_CURVE('',#780,#780,#785,.T.);
#787=ORIENTED_EDGE('',*,*,#786,.F.);
#788=EDGE_LOOP('',(#787));
#789=FACE_BOUND('',#788,.T.);
#790=ADVANCED_FACE('',(#778,#789),#775,.F.);
#791=CARTESIAN_POINT('',(-2.458500000000000,-3.010695E-016,7.0));
#792=CARTESIAN_POINT('',(-2.458500000000000,-3.010695E-016,0.0));
#793=CARTESIAN_POINT('',(-2.458499999999999,-2.458500000000000,6.999999999999999));
#794=CARTESIAN_POINT('',(-2.458499999999999,-2.458500000000000,0.0));
#795=CARTESIAN_POINT('',(3.010695E-016,-2.458500000000000,7.0));
#796=CARTESIAN_POINT('',(3.010695E-016,-2.458500000000000,0.0));
#797=CARTESIAN_POINT('',(2.458500000000000,-2.458499999999999,6.999999999999999));
#798=CARTESIAN_POINT('',(2.458500000000000,-2.458499999999999,0.0));
#799=CARTESIAN_POINT('',(2.458500000000000,3.010695E-016,7.0));
#800=CARTESIAN_POINT('',(2.458500000000000,3.010695E-016,0.0));
#801=CARTESIAN_POINT('',(2.458499999999999,2.458500000000000,6.999999999999999));
#802=CARTESIAN_POINT('',(2.458499999999999,2.458500000000000,0.0));
#803=CARTESIAN_POINT('',(-3.010695E-016,2.458500000000000,7.0));
#804=CARTESIAN_POINT('',(-3.010695E-016,2.458500000000000,0.0));
#805=CARTESIAN_POINT('',(-2.458500000000000,2.458499999999999,6.999999999999999));
#806=CARTESIAN_POINT('',(-2.458500000000000,2.458499999999999,0.0));
#807=CARTESIAN_POINT('',(-2.458500000000000,-3.010695E-016,7.0));
#808=CARTESIAN_POINT('',(-2.458500000000000,-3.010695E-016,0.0));
#816=(BOUNDED_SURFACE()B_SPLINE_SURFACE(1,2,((#791,#793,#795,#797,#799,#801,#803,#805,#807),(#792,#794,#796,#798,#800,#802,#804,#806,#808)),.UNSPECIFIED.,.F.,.T.,.U.)B_SPLINE_SURFACE_WITH_KNOTS((2,2),(3,2,2,2,3),(-38.316823595137478,-35.469559002906443),(0.0,3.861802769425253,7.723605538850507,11.585408308275760,15.447211077701013),.UNSPECIFIED.)GEOMETRIC_REPRESENTATION_ITEM()RATIONAL_B_SPLINE_SURFACE(((1.0,0.707106781186548,1.0,0.707106781186548,1.0,0.707106781186548,1.0,0.707106781186548,1.0),(1.0,0.707106781186548,1.0,0.707106781186548,1.0,0.707106781186548,1.0,0.707106781186548,1.0)))REPRESENTATION_ITEM('')SURFACE());
#817=ORIENTED_EDGE('',*,*,#331,.F.);
#818=EDGE_LOOP('',(#817));
#819=FACE_OUTER_BOUND('',#818,.T.);
#820=CARTESIAN_POINT('',(2.458500000000000,0.0,7.000000000000001));
#821=VERTEX_POINT('',#820);
#822=CARTESIAN_POINT('',(0.0,0.0,6.999999999999993));
#823=DIRECTION('',(0.0,0.0,-1.0));
#824=DIRECTION('',(1.0,0.0,0.0));
#825=AXIS2_PLACEMENT_3D('',#822,#823,#824);
#826=CIRCLE('',#825,2.458500000000000);
#827=EDGE_CURVE('',#821,#821,#826,.T.);
#828=ORIENTED_EDGE('',*,*,#827,.F.);
#829=EDGE_LOOP('',(#828));
#830=FACE_BOUND('',#829,.T.);
#831=ADVANCED_FACE('',(#819,#830),#816,.F.);
#832=CARTESIAN_POINT('',(-3.500000000000005,42.500000000000000,7.000000000000001));
#833=DIRECTION('',(-1.0,0.0,0.0));
#834=DIRECTION('',(0.0,0.0,1.0));
#835=AXIS2_PLACEMENT_3D('',#832,#833,#834);
#836=PLANE('',#835);
#837=ORIENTED_EDGE('',*,*,#144,.F.);
#838=CARTESIAN_POINT('',(-3.500000000000005,42.500000000000000,7.000000000000001));
#839=VERTEX_POINT('',#838);
#840=CARTESIAN_POINT('',(-3.500000000000005,42.500000000000000,7.000000000000001));
#841=DIRECTION('',(0.0,0.0,-1.0));
#842=VECTOR('',#841,7.000000000000001);
#843=LINE('',#840,#842);
#844=EDGE_CURVE('',#839,#131,#843,.T.);
#845=ORIENTED_EDGE('',*,*,#844,.F.);
#846=CARTESIAN_POINT('',(-3.500000000000001,25.0,7.000000000000001));
#847=VERTEX_POINT('',#846);
#848=CARTESIAN_POINT('',(-3.500000000000001,25.0,7.000000000000001));
#849=DIRECTION('',(0.0,1.0,0.0));
#850=VECTOR('',#849,17.500000000000000);
#851=LINE('',#848,#850);
#852=EDGE_CURVE('',#847,#839,#851,.T.);
#853=ORIENTED_EDGE('',*,*,#852,.F.);
#854=CARTESIAN_POINT('',(-3.500000000000001,25.0,7.000000000000001));
#855=DIRECTION('',(0.0,0.0,-1.0));
#856=VECTOR('',#855,7.000000000000001);
#857=LINE('',#854,#856);
#858=EDGE_CURVE('',#847,#139,#857,.T.);
#859=ORIENTED_EDGE('',*,*,#858,.T.);
#860=EDGE_LOOP('',(#837,#845,#853,#859));
#861=FACE_OUTER_BOUND('',#860,.T.);
#862=ADVANCED_FACE('',(#861),#836,.F.);
#863=CARTESIAN_POINT('',(0.0,25.0,7.000000000000001));
#864=DIRECTION('',(0.0,0.0,-1.0));
#865=DIRECTION('',(-1.0,0.0,0.0));
#866=AXIS2_PLACEMENT_3D('',#863,#864,#865);
#867=CYLINDRICAL_SURFACE('',#866,3.500000000000000);
#868=ORIENTED_EDGE('',*,*,#153,.F.);
#869=ORIENTED_EDGE('',*,*,#858,.F.);
#870=CARTESIAN_POINT('',(3.500000000000000,25.0,7.000000000000001));
#871=VERTEX_POINT('',#870);
#872=CARTESIAN_POINT('',(0.0,25.0,7.000000000000001));
#873=DIRECTION('',(0.0,0.0,-1.0));
#874=DIRECTION('',(-1.0,0.0,0.0));
#875=AXIS2_PLACEMENT_3D('',#872,#873,#874);
#876=CIRCLE('',#875,3.500000000000000);
#877=EDGE_CURVE('',#871,#847,#876,.T.);
#878=ORIENTED_EDGE('',*,*,#877,.F.);
#879=CARTESIAN_POINT('',(3.500000000000000,25.0,7.000000000000001));
#880=DIRECTION('',(0.0,0.0,-1.0));
#881=VECTOR('',#880,7.000000000000001);
#882=LINE('',#879,#881);
#883=EDGE_CURVE('',#871,#147,#882,.T.);
#884=ORIENTED_EDGE('',*,*,#883,.T.);
#885=EDGE_LOOP('',(#868,#869,#878,#884));
#886=FACE_OUTER_BOUND('',#885,.T.);
#887=ADVANCED_FACE('',(#886),#867,.F.);
#888=CARTESIAN_POINT('',(3.500000000000000,25.0,7.000000000000001));
#889=DIRECTION('',(1.0,0.0,0.0));
#890=DIRECTION('',(0.0,0.0,-1.0));
#891=AXIS2_PLACEMENT_3D('',#888,#889,#890);
#892=PLANE('',#891);
#893=ORIENTED_EDGE('',*,*,#161,.F.);
#894=ORIENTED_EDGE('',*,*,#883,.F.);
#895=CARTESIAN_POINT('',(3.499999999999996,42.500000000000000,7.000000000000001));
#896=VERTEX_POINT('',#895);
#897=CARTESIAN_POINT('',(3.499999999999996,42.500000000000000,7.000000000000001));
#898=DIRECTION('',(0.0,-1.0,0.0));
#899=VECTOR('',#898,17.500000000000000);
#900=LINE('',#897,#899);
#901=EDGE_CURVE('',#896,#871,#900,.T.);
#902=ORIENTED_EDGE('',*,*,#901,.F.);
#903=CARTESIAN_POINT('',(3.499999999999996,42.500000000000000,0.0));
#904=DIRECTION('',(0.0,0.0,1.0));
#905=VECTOR('',#904,7.000000000000001);
#906=LINE('',#903,#905);
#907=EDGE_CURVE('',#156,#896,#906,.T.);
#908=ORIENTED_EDGE('',*,*,#907,.F.);
#909=EDGE_LOOP('',(#893,#894,#902,#908));
#910=FACE_OUTER_BOUND('',#909,.T.);
#911=ADVANCED_FACE('',(#910),#892,.F.);
#912=CARTESIAN_POINT('',(-3.500000000000000,-25.0,7.000000000000001));
#913=DIRECTION('',(-1.0,0.0,0.0));
#914=DIRECTION('',(0.0,0.0,1.0));
#915=AXIS2_PLACEMENT_3D('',#912,#913,#914);
#916=PLANE('',#915);
#917=ORIENTED_EDGE('',*,*,#226,.F.);
#918=CARTESIAN_POINT('',(-3.500000000000000,-25.0,7.000000000000001));
#919=VERTEX_POINT('',#918);
#920=CARTESIAN_POINT('',(-3.500000000000000,-25.0,7.000000000000001));
#921=DIRECTION('',(0.0,0.0,-1.0));
#922=VECTOR('',#921,7.000000000000001);
#923=LINE('',#920,#922);
#924=EDGE_CURVE('',#919,#212,#923,.T.);
#925=ORIENTED_EDGE('',*,*,#924,.F.);
#926=CARTESIAN_POINT('',(-3.499999999999988,-42.500000000000000,7.000000000000001));
#927=VERTEX_POINT('',#926);
#928=CARTESIAN_POINT('',(-3.499999999999988,-42.500000000000000,7.000000000000001));
#929=DIRECTION('',(0.0,1.0,0.0));
#930=VECTOR('',#929,17.500000000000000);
#931=LINE('',#928,#930);
#932=EDGE_CURVE('',#927,#919,#931,.T.);
#933=ORIENTED_EDGE('',*,*,#932,.F.);
#934=CARTESIAN_POINT('',(-3.499999999999988,-42.500000000000000,0.0));
#935=DIRECTION('',(0.0,0.0,1.0));
#936=VECTOR('',#935,7.000000000000001);
#937=LINE('',#934,#936);
#938=EDGE_CURVE('',#221,#927,#937,.T.);
#939=ORIENTED_EDGE('',*,*,#938,.F.);
#940=EDGE_LOOP('',(#917,#925,#933,#939));
#941=FACE_OUTER_BOUND('',#940,.T.);
#942=ADVANCED_FACE('',(#941),#916,.F.);
#943=CARTESIAN_POINT('',(0.0,-25.0,7.000000000000001));
#944=DIRECTION('',(0.0,0.0,-1.0));
#945=DIRECTION('',(0.999999999999981,0.000000193201454,0.0));
#946=AXIS2_PLACEMENT_3D('',#943,#944,#945);
#947=CYLINDRICAL_SURFACE('',#946,3.499999999999995);
#948=ORIENTED_EDGE('',*,*,#218,.F.);
#949=CARTESIAN_POINT('',(3.500000000000000,-24.999999323794913,7.000000000000001));
#950=VERTEX_POINT('',#949);
#951=CARTESIAN_POINT('',(3.500000000000000,-24.999999323794913,7.000000000000001));
#952=DIRECTION('',(0.0,0.0,-1.0));
#953=VECTOR('',#952,7.000000000000001);
#954=LINE('',#951,#953);
#955=EDGE_CURVE('',#950,#204,#954,.T.);
#956=ORIENTED_EDGE('',*,*,#955,.F.);
#957=CARTESIAN_POINT('',(0.0,-25.0,7.000000000000001));
#958=DIRECTION('',(0.0,0.0,-1.0));
#959=DIRECTION('',(0.999999999999981,0.000000193201454,0.0));
#960=AXIS2_PLACEMENT_3D('',#957,#958,#959);
#961=CIRCLE('',#960,3.499999999999995);
#962=EDGE_CURVE('',#919,#950,#961,.T.);
#963=ORIENTED_EDGE('',*,*,#962,.F.);
#964=ORIENTED_EDGE('',*,*,#924,.T.);
#965=EDGE_LOOP('',(#948,#956,#963,#964));
#966=FACE_OUTER_BOUND('',#965,.T.);
#967=ADVANCED_FACE('',(#966),#947,.F.);
#968=CARTESIAN_POINT('',(3.500000000000014,-42.500000000000000,7.000000000000001));
#969=DIRECTION('',(1.0,0.0,0.0));
#970=DIRECTION('',(0.0,0.0,-1.0));
#971=AXIS2_PLACEMENT_3D('',#968,#969,#970);
#972=PLANE('',#971);
#973=ORIENTED_EDGE('',*,*,#209,.F.);
#974=CARTESIAN_POINT('',(3.500000000000014,-42.500000000000000,7.000000000000001));
#975=VERTEX_POINT('',#974);
#976=CARTESIAN_POINT('',(3.500000000000014,-42.500000000000000,7.000000000000001));
#977=DIRECTION('',(0.0,0.0,-1.0));
#978=VECTOR('',#977,7.000000000000001);
#979=LINE('',#976,#978);
#980=EDGE_CURVE('',#975,#196,#979,.T.);
#981=ORIENTED_EDGE('',*,*,#980,.F.);
#982=CARTESIAN_POINT('',(3.500000000000000,-24.999999323794913,7.000000000000001));
#983=DIRECTION('',(0.0,-1.0,0.0));
#984=VECTOR('',#983,17.500000676205087);
#985=LINE('',#982,#984);
#986=EDGE_CURVE('',#950,#975,#985,.T.);
#987=ORIENTED_EDGE('',*,*,#986,.F.);
#988=ORIENTED_EDGE('',*,*,#955,.T.);
#989=EDGE_LOOP('',(#973,#981,#987,#988));
#990=FACE_OUTER_BOUND('',#989,.T.);
#991=ADVANCED_FACE('',(#990),#972,.F.);
#992=CARTESIAN_POINT('',(-20.0,42.500000000000000,0.0));
#993=DIRECTION('',(0.0,1.0,0.0));
#994=DIRECTION('',(0.0,0.0,1.0));
#995=AXIS2_PLACEMENT_3D('',#992,#993,#994);
#996=PLANE('',#995);
#997=ORIENTED_EDGE('',*,*,#377,.F.);
#998=CARTESIAN_POINT('',(-19.0,42.500000000000000,7.000000000000001));
#999=DIRECTION('',(1.0,0.0,0.0));
#1000=VECTOR('',#999,15.499999999999995);
#1001=LINE('',#998,#1000);
#1002=EDGE_CURVE('',#366,#839,#1001,.T.);
#1003=ORIENTED_EDGE('',*,*,#1002,.T.);
#1004=ORIENTED_EDGE('',*,*,#844,.T.);
#1005=ORIENTED_EDGE('',*,*,#136,.F.);
#1006=EDGE_LOOP('',(#997,#1003,#1004,#1005));
#1007=FACE_OUTER_BOUND('',#1006,.T.);
#1008=ADVANCED_FACE('',(#1007),#996,.T.);
#1009=CARTESIAN_POINT('',(20.0,-42.500000000000000,0.0));
#1010=DIRECTION('',(0.0,-1.0,0.0));
#1011=DIRECTION('',(0.0,0.0,-1.0));
#1012=AXIS2_PLACEMENT_3D('',#1009,#1010,#1011);
#1013=PLANE('',#1012);
#1014=ORIENTED_EDGE('',*,*,#456,.F.);
#1015=CARTESIAN_POINT('',(19.0,-42.500000000000000,7.000000000000001));
#1016=DIRECTION('',(-1.0,0.0,0.0));
#1017=VECTOR('',#1016,15.499999999999986);
#1018=LINE('',#1015,#1017);
#1019=EDGE_CURVE('',#445,#975,#1018,.T.);
#1020=ORIENTED_EDGE('',*,*,#1019,.T.);
#1021=ORIENTED_EDGE('',*,*,#980,.T.);
#1022=ORIENTED_EDGE('',*,*,#201,.F.);
#1023=EDGE_LOOP('',(#1014,#1020,#1021,#1022));
#1024=FACE_OUTER_BOUND('',#1023,.T.);
#1025=ADVANCED_FACE('',(#1024),#1013,.T.);
#1026=CARTESIAN_POINT('',(20.0,-42.500000000000000,0.0));
#1027=DIRECTION('',(0.0,-1.0,0.0));
#1028=DIRECTION('',(0.0,0.0,-1.0));
#1029=AXIS2_PLACEMENT_3D('',#1026,#1027,#1028);
#1030=PLANE('',#1029);
#1031=ORIENTED_EDGE('',*,*,#103,.F.);
#1032=ORIENTED_EDGE('',*,*,#232,.F.);
#1033=ORIENTED_EDGE('',*,*,#938,.T.);
#1034=CARTESIAN_POINT('',(-3.499999999999988,-42.500000000000000,7.000000000000001));
#1035=DIRECTION('',(-1.0,0.0,0.0));
#1036=VECTOR('',#1035,15.500000000000012);
#1037=LINE('',#1034,#1036);
#1038=EDGE_CURVE('',#927,#74,#1037,.T.);
#1039=ORIENTED_EDGE('',*,*,#1038,.T.);
#1040=EDGE_LOOP('',(#1031,#1032,#1033,#1039));
#1041=FACE_OUTER_BOUND('',#1040,.T.);
#1042=ADVANCED_FACE('',(#1041),#1030,.T.);
#1043=CARTESIAN_POINT('',(0.0,0.0,7.000000000000001));
#1044=DIRECTION('',(0.0,0.0,1.0));
#1045=DIRECTION('',(1.0,0.0,0.0));
#1046=AXIS2_PLACEMENT_3D('',#1043,#1044,#1045);
#1047=PLANE('',#1046);
#1048=ORIENTED_EDGE('',*,*,#81,.F.);
#1049=ORIENTED_EDGE('',*,*,#1038,.F.);
#1050=ORIENTED_EDGE('',*,*,#932,.T.);
#1051=ORIENTED_EDGE('',*,*,#962,.T.);
#1052=ORIENTED_EDGE('',*,*,#986,.T.);
#1053=ORIENTED_EDGE('',*,*,#1019,.F.);
#1054=ORIENTED_EDGE('',*,*,#450,.F.);
#1055=ORIENTED_EDGE('',*,*,#427,.F.);
#1056=ORIENTED_EDGE('',*,*,#397,.F.);
#1057=CARTESIAN_POINT('',(3.499999999999996,42.500000000000000,7.000000000000001));
#1058=DIRECTION('',(1.0,0.0,0.0));
#1059=VECTOR('',#1058,15.500000000000004);
#1060=LINE('',#1057,#1059);
#1061=EDGE_CURVE('',#896,#390,#1060,.T.);
#1062=ORIENTED_EDGE('',*,*,#1061,.F.);
#1063=ORIENTED_EDGE('',*,*,#901,.T.);
#1064=ORIENTED_EDGE('',*,*,#877,.T.);
#1065=ORIENTED_EDGE('',*,*,#852,.T.);
#1066=ORIENTED_EDGE('',*,*,#1002,.F.);
#1067=ORIENTED_EDGE('',*,*,#371,.F.);
#1068=ORIENTED_EDGE('',*,*,#348,.F.);
#1069=EDGE_LOOP('',(#1048,#1049,#1050,#1051,#1052,#1053,#1054,#1055,#1056,#1062,#1063,#1064,#1065,#1066,#1067,#1068));
#1070=FACE_OUTER_BOUND('',#1069,.T.);
#1071=ORIENTED_EDGE('',*,*,#499,.T.);
#1072=EDGE_LOOP('',(#1071));
#1073=FACE_BOUND('',#1072,.T.);
#1074=ORIENTED_EDGE('',*,*,#540,.T.);
#1075=EDGE_LOOP('',(#1074));
#1076=FACE_BOUND('',#1075,.T.);
#1077=ORIENTED_EDGE('',*,*,#581,.T.);
#1078=EDGE_LOOP('',(#1077));
#1079=FACE_BOUND('',#1078,.T.);
#1080=ORIENTED_EDGE('',*,*,#622,.T.);
#1081=EDGE_LOOP('',(#1080));
#1082=FACE_BOUND('',#1081,.T.);
#1083=ORIENTED_EDGE('',*,*,#663,.T.);
#1084=EDGE_LOOP('',(#1083));
#1085=FACE_BOUND('',#1084,.T.);
#1086=ORIENTED_EDGE('',*,*,#704,.T.);
#1087=EDGE_LOOP('',(#1086));
#1088=FACE_BOUND('',#1087,.T.);
#1089=ORIENTED_EDGE('',*,*,#745,.T.);
#1090=EDGE_LOOP('',(#1089));
#1091=FACE_BOUND('',#1090,.T.);
#1092=ORIENTED_EDGE('',*,*,#786,.T.);
#1093=EDGE_LOOP('',(#1092));
#1094=FACE_BOUND('',#1093,.T.);
#1095=ORIENTED_EDGE('',*,*,#827,.T.);
#1096=EDGE_LOOP('',(#1095));
#1097=FACE_BOUND('',#1096,.T.);
#1098=ADVANCED_FACE('',(#1070,#1073,#1076,#1079,#1082,#1085,#1088,#1091,#1094,#1097),#1047,.T.);
#1099=CARTESIAN_POINT('',(-20.0,42.500000000000000,0.0));
#1100=DIRECTION('',(0.0,1.0,0.0));
#1101=DIRECTION('',(0.0,0.0,1.0));
#1102=AXIS2_PLACEMENT_3D('',#1099,#1100,#1101);
#1103=PLANE('',#1102);
#1104=ORIENTED_EDGE('',*,*,#410,.F.);
#1105=ORIENTED_EDGE('',*,*,#169,.F.);
#1106=ORIENTED_EDGE('',*,*,#907,.T.);
#1107=ORIENTED_EDGE('',*,*,#1061,.T.);
#1108=EDGE_LOOP('',(#1104,#1105,#1106,#1107));
#1109=FACE_OUTER_BOUND('',#1108,.T.);
#1110=ADVANCED_FACE('',(#1109),#1103,.T.);
#1111=CLOSED_SHELL('',(#107,#335,#359,#383,#414,#438,#462,#503,#544,#585,#626,#667,#708,#749,#790,#831,#862,#887,#911,#942,#967,#991,#1008,#1025,#1042,#1098,#1110));
#1112=MANIFOLD_SOLID_BREP('',#1111);
#1113=COLOUR_RGB('Default',0.752941012382507,0.752941012382507,0.752941012382507);
#1114=FILL_AREA_STYLE_COLOUR('Default',#1113);
#1115=FILL_AREA_STYLE('Default',(#1114));
#1116=SURFACE_STYLE_FILL_AREA(#1115);
#1117=SURFACE_SIDE_STYLE('Default',(#1116));
#1118=SURFACE_STYLE_USAGE(.BOTH.,#1117);
#1119=PRESENTATION_STYLE_ASSIGNMENT((#1118));
#1120=STYLED_ITEM('',(#1119),#1112);
#1121=MECHANICAL_DESIGN_GEOMETRIC_PRESENTATION_REPRESENTATION('',(#1120),#36);
#1122=ADVANCED_BREP_SHAPE_REPRESENTATION('ABSR',(#1112),#36);
#1123=SHAPE_REPRESENTATION_RELATIONSHIP('SRR','None',#1122,#41);
ENDSEC;
END-ISO-10303-21;
